<svg xmlns="http://www.w3.org/2000/svg" width="1240" height="1240"><path d="M595 15.381c0 2.371-7.661 3.496-34.997 5.138-20.855 1.253-27.64 2.012-32.437 3.629-3.356 1.131-11.873 2.596-19.066 3.279-9.229.877-14.16 1.829-17 3.283-2.2 1.127-7.768 2.551-12.374 3.165-4.606.613-9.781 1.963-11.5 2.998-1.719 1.035-6.631 2.387-10.915 3.005-4.285.617-9.618 2.054-11.851 3.194-2.234 1.139-6.756 2.505-10.048 3.036-3.292.53-8.084 2.035-10.649 3.344-2.565 1.31-6.532 2.676-8.816 3.036-2.283.36-5.633 1.748-7.444 3.083-1.81 1.336-4.041 2.429-4.957 2.429-.915 0-4.09 1.286-7.055 2.857-2.965 1.571-7.191 3.428-9.391 4.126-2.2.699-4.745 1.919-5.655 2.713-.911.793-3.746 2.072-6.3 2.84-2.554.769-5.859 2.25-7.344 3.292-1.486 1.042-4.501 2.472-6.701 3.179-2.2.706-5.044 2.096-6.321 3.088-1.276.992-4.705 2.497-7.619 3.345-2.914.847-5.838 2.19-6.498 2.986-.66.795-2.464 1.723-4.008 2.062-1.544.339-4.325 1.742-6.181 3.118-1.855 1.376-5.173 3.392-7.373 4.48-5.68 2.808-12.658 7.036-15.951 9.664-1.55 1.237-3.212 2.25-3.693 2.25-.48 0-2.737 1.35-5.015 3-2.277 1.65-4.687 3-5.354 3-.666 0-2.825 1.238-4.797 2.75-1.972 1.513-5.921 4.325-8.777 6.25-2.855 1.925-6.175 4.414-7.378 5.53-1.203 1.117-5.527 4.601-9.611 7.742-15.534 11.949-27.238 21.402-44.792 36.177-12.436 10.466-39.668 37.776-48.415 48.551-3.349 4.125-8.142 9.802-10.653 12.615-6.415 7.19-15.254 18.185-18.406 22.897-1.467 2.193-4.244 6.013-6.171 8.488-1.926 2.475-4.368 5.85-5.426 7.5a177.558 177.558 0 01-4.061 6 187.455 187.455 0 00-4.319 6.407c-1.2 1.874-3.42 5.249-4.935 7.5-1.514 2.251-3.539 5.387-4.5 6.969-.96 1.582-2.707 4.061-3.882 5.509-1.174 1.447-2.879 4.412-3.788 6.587-.909 2.175-2.309 4.681-3.112 5.568-.803.887-2.645 3.829-4.093 6.536-6.657 12.45-8.596 16.131-9.967 18.924-.81 1.65-2.099 4.125-2.864 5.5-3.541 6.365-10.476 20.842-11.466 23.935-.604 1.889-1.711 4.139-2.46 5-.749.861-1.929 3.365-2.622 5.565-.694 2.2-2.282 5.8-3.529 8-1.247 2.2-2.591 5.575-2.986 7.5-.396 1.925-1.756 5.3-3.024 7.5-1.267 2.2-2.613 5.8-2.99 8-.378 2.2-1.706 5.8-2.952 8-1.247 2.2-2.77 6.377-3.385 9.283-.616 2.906-2.053 7.114-3.194 9.351-1.142 2.237-2.512 6.777-3.045 10.088-.533 3.311-1.865 7.774-2.959 9.919-1.094 2.144-2.453 7.601-3.021 12.125-.567 4.524-1.929 10.253-3.027 12.73-1.097 2.477-2.59 9.229-3.316 15.004s-2.229 13.2-3.341 16.5c-1.272 3.777-2.275 10.262-2.706 17.5-.376 6.325-1.659 16-2.851 21.5-2.043 9.433-2.166 12.579-2.166 55.5 0 39.195.245 46.825 1.764 55.062.971 5.259 2.39 18.309 3.155 29 .942 13.186 1.922 20.68 3.045 23.299.911 2.124 2.274 9.099 3.03 15.5.783 6.632 2.232 13.575 3.369 16.139 1.097 2.475 2.413 8.325 2.924 13 .512 4.675 1.874 10.57 3.028 13.101 1.155 2.53 2.583 7.628 3.174 11.329.591 3.701 2.143 8.83 3.448 11.399 1.305 2.569 2.663 6.777 3.018 9.351.356 2.573 1.521 5.791 2.59 7.15 1.069 1.36 2.571 5.463 3.337 9.118.767 3.656 2.125 7.455 3.02 8.444.895.988 2.294 4.358 3.109 7.488.815 3.131 2.356 6.913 3.424 8.406 1.069 1.493 2.44 4.636 3.048 6.985.608 2.348 2.21 5.899 3.561 7.889 1.351 1.991 2.456 4.514 2.456 5.608 0 1.094 1.3 4.293 2.888 7.11 1.589 2.817 3.215 6.247 3.615 7.622.4 1.375 1.56 3.413 2.578 4.528 1.018 1.116 2.557 4.028 3.419 6.472.862 2.444 2.397 5.356 3.411 6.472 1.013 1.115 2.381 3.709 3.039 5.764.658 2.055 1.623 4 2.145 4.323.523.323 2.31 3.141 3.974 6.264 4.75 8.919 5.869 10.773 15.483 25.66 10.958 16.97 10.846 16.804 18.935 28.017 3.57 4.95 7.269 10.125 8.218 11.5 1.792 2.594 10.557 13.58 23.995 30.074 19.437 23.857 46.999 51.213 69.673 69.153 1.58 1.25 4.571 3.848 6.647 5.773 2.076 1.925 5.894 5.075 8.485 7 8.671 6.443 15.904 12.11 21.717 17.017 2.047 1.727 6.772 5.122 10.5 7.544 3.728 2.421 7.829 5.311 9.113 6.421 1.284 1.11 2.859 2.023 3.5 2.03.641.006 4.765 2.249 9.165 4.984 4.4 2.736 10.106 6.097 12.679 7.47 2.574 1.373 4.928 2.898 5.231 3.388.303.491 7.198 4.137 15.321 8.101 22.158 10.815 26.132 12.69 33.769 15.933 3.85 1.635 14.089 6.166 22.752 10.069 15.79 7.114 43.57 16.907 55.748 19.652 6.83 1.54 23.388 5.906 38.411 10.129 9.952 2.798 29.901 6.087 65.089 10.732 26.726 3.528 105.975 3.538 135.5.017 36.204-4.318 52.325-7.225 78-14.067 7.425-1.979 16.2-4.217 19.5-4.973 25.332-5.809 46.331-13.583 85.253-31.559 3.439-1.588 6.703-2.888 7.253-2.888 1.417 0 41.075-19.773 42.948-21.413.85-.745 3.346-2.322 5.546-3.504 2.2-1.183 6.025-3.471 8.5-5.085 2.475-1.613 6.693-4.108 9.373-5.545 4.466-2.394 7.884-4.662 19.127-12.697 8.43-6.025 18.762-13.928 19.513-14.927.283-.375 3.658-2.982 7.5-5.795 3.843-2.812 8.562-6.446 10.487-8.075 1.925-1.63 4.85-4.101 6.5-5.491 32.989-27.805 38.233-32.655 54.735-50.631 8.002-8.716 29.605-34.343 35.265-41.832 2.2-2.912 5.145-6.691 6.544-8.399 2.407-2.939 5.229-6.911 7.456-10.496.55-.886 3.475-4.958 6.5-9.049 3.025-4.092 6.175-8.654 7-10.139 3.38-6.082 7.513-12.588 9.689-15.249 1.271-1.554 2.311-3.212 2.311-3.683 0-.472 1.293-3.025 2.872-5.674 9.741-16.333 14.922-25.829 22.885-41.947 4.926-9.973 10.092-20.998 11.48-24.5A2319.342 2319.342 0 011180.04 844c10.389-25.485 25.962-73.814 25.96-80.568 0-1.137.917-5.412 2.039-9.5 1.95-7.111 5.612-25.38 8.505-42.432 9.889-58.295 7.362-144.781-6.109-209-.807-3.85-2.584-12.4-3.949-19-4.071-19.687-9.359-37.732-19.34-66-9.351-26.486-16.497-43.273-29.585-69.5-6.809-13.644-8.672-17.142-15.713-29.5-1.567-2.75-3.863-7.025-5.103-9.5-1.24-2.475-3.056-5.625-4.036-7-5.554-7.792-6.892-9.893-8.754-13.752-1.128-2.339-3.042-5.335-4.253-6.658-3.056-3.339-7.05-8.872-12.315-17.06-2.465-3.834-4.945-7.257-5.511-7.607-.566-.35-1.783-1.771-2.703-3.159-2.313-3.488-13.596-17.826-15.947-20.264-1.06-1.1-6.213-6.95-11.451-13-9.695-11.198-25.57-27.585-36.318-37.488-9.769-9.001-34.682-29.989-37.297-31.421-.913-.5-4.135-3.012-7.16-5.583-5.012-4.26-16.663-13.362-25.868-20.21-6.128-4.559-16.258-11.335-24.132-16.143a8724.18 8724.18 0 01-15.701-9.617C920.788 97.267 916.68 95 916.171 95c-.509 0-1.468-.653-2.131-1.451C912.661 91.886 894.914 83 892.973 83c-.706 0-2.728-1.101-4.492-2.447-1.764-1.345-4.507-2.758-6.094-3.139-1.588-.38-5.362-1.948-8.387-3.484-9.021-4.579-18.261-8.708-22.17-9.907-2.019-.619-4.208-1.774-4.866-2.567-.659-.793-3.057-1.93-5.33-2.526-2.274-.596-5.709-2.131-7.634-3.412-1.925-1.28-5.942-2.832-8.926-3.45-2.984-.617-6.823-1.986-8.53-3.041-1.707-1.055-6.227-2.417-10.044-3.027-3.817-.61-8.349-1.979-10.071-3.044-1.722-1.064-6.662-2.426-10.978-3.026-4.316-.6-9.546-1.958-11.622-3.017-2.075-1.059-7.272-2.412-11.548-3.007-4.276-.595-10.026-2.133-12.778-3.419-3.725-1.741-7.685-2.519-15.503-3.047-5.775-.39-12.75-1.342-15.5-2.115a846.268 846.268 0 00-8.5-2.343c-1.925-.515-14.911-1.617-28.857-2.449-26.074-1.556-32.838-2.574-33.801-5.085-.81-2.109-52.342-2.175-52.342-.067m-26 28.643c-6.875.395-17.45 1.644-23.5 2.778-6.05 1.133-14.375 2.348-18.5 2.701-4.125.353-10.65 1.715-14.5 3.026-3.85 1.311-10.898 2.861-15.662 3.445-4.764.583-10.614 1.918-13 2.966-2.386 1.049-7.755 2.376-11.931 2.951-4.175.575-9.597 1.905-12.048 2.955-2.451 1.051-6.459 2.237-8.907 2.636-2.449.399-7.377 1.976-10.952 3.503-3.575 1.528-8.3 3.089-10.5 3.47-2.2.381-5.078 1.388-6.394 2.237-1.317.849-5.367 2.561-9 3.806-3.634 1.244-10.431 3.942-15.106 5.996a1423.732 1423.732 0 01-15 6.479c-8.228 3.476-41.72 20.266-49 24.564-23.197 13.698-36.611 22.472-50.397 32.963-3.613 2.75-8.86 6.575-11.659 8.5-5.369 3.692-19.861 15.539-38.849 31.758-17.395 14.859-28.577 26.287-53.077 54.242-4.579 5.225-8.602 9.725-8.94 10-.338.275-3.763 4.775-7.61 10a9211.663 9211.663 0 01-9.218 12.5c-3.693 4.989-13.587 19.282-16.25 23.476-1.375 2.166-5.155 7.895-8.4 12.731-8.593 12.806-9.474 14.275-18.777 31.293-9.318 17.047-18.003 35.156-22.78 47.5-1.702 4.4-3.73 9.35-4.506 11-2.188 4.654-6.575 15.521-8.276 20.5a822.059 822.059 0 01-3.888 11c-1.293 3.575-2.847 9.186-3.453 12.468-.606 3.283-1.925 7.582-2.932 9.555-1.006 1.972-2.35 6.486-2.986 10.031-.636 3.545-2.018 8.405-3.069 10.8-1.052 2.395-2.59 8.47-3.417 13.5-.828 5.03-2.178 11.052-3 13.38-.823 2.329-1.995 9.754-2.606 16.5-.61 6.747-2.006 15.866-3.101 20.266-2.898 11.646-3.747 27.352-3.755 69.5-.007 42.679 1.209 69.973 3.475 78 .855 3.025 2.201 12.282 2.993 20.571.792 8.288 2.138 17.047 2.99 19.464.853 2.416 2.208 8.772 3.012 14.123.804 5.352 2.31 11.893 3.347 14.536 1.038 2.643 2.211 7.281 2.607 10.306.397 3.025 2.026 8.797 3.621 12.826 1.596 4.029 2.901 8.452 2.901 9.829 0 1.377 1.066 5.281 2.368 8.674A508.049 508.049 0 0175.995 812a6955.36 6955.36 0 004.382 12.567c1.167 3.337 2.902 7.246 3.855 8.687.952 1.441 2.19 4.668 2.751 7.172 1.605 7.161 22.524 50.531 34.281 71.074 11.868 20.735 31.494 49.056 47.058 67.905 18.913 22.905 28.012 32.998 44.139 48.96 16.946 16.772 43.671 40.635 45.509 40.635.53 0 2.519 1.462 4.42 3.25 4.961 4.663 11.657 9.75 12.836 9.75.947 0 4.203 2.453 11.274 8.492 7.154 6.109 11.696 9.434 13.773 10.083 1.225.382 3.673 1.872 5.44 3.31 6.164 5.016 8.816 6.848 12.969 8.96 2.3 1.17 4.446 2.554 4.769 3.076.323.523 2.941 2.133 5.818 3.579 10.036 5.045 13.543 7.011 15.381 8.624 1.017.893 3.65 2.185 5.85 2.873 2.2.687 4.9 2.038 6 3.003 1.1.965 3.8 2.315 6 3s4.949 2.11 6.109 3.165c1.16 1.055 3.84 2.396 5.956 2.98 2.116.585 5.434 2.141 7.373 3.459s3.984 2.397 4.544 2.399c.56.002 4.142 1.577 7.961 3.5 3.818 1.923 7.643 3.499 8.5 3.501.856.002 3.119.956 5.027 2.119 1.909 1.164 5.734 2.78 8.5 3.592 2.767.812 6.38 2.287 8.03 3.279 1.65.992 5.7 2.345 9 3.006 3.3.661 7.35 2.02 9 3.019 1.65.999 5.791 2.319 9.203 2.934 3.412.615 8.209 2.005 10.661 3.09 2.451 1.084 8.238 2.631 12.858 3.436 4.62.806 10.078 2.166 12.128 3.023 2.051.857 8.55 2.194 14.444 2.971 5.894.777 14.764 2.295 19.711 3.372 4.947 1.078 12.595 2.258 16.995 2.623 4.4.366 11.68 1.519 16.177 2.562 12.707 2.949 57.97 4.404 93.088 2.992 15.254-.614 29.535-1.494 31.735-1.957 2.2-.463 6.25-1.334 9-1.936 2.75-.601 9.66-1.552 15.355-2.111 5.696-.56 12.936-1.686 16.089-2.504 3.153-.817 10.923-2.165 17.266-2.997 6.343-.831 13.234-2.222 15.313-3.091 2.078-.868 7.614-2.248 12.301-3.067 4.688-.818 9.836-2.166 11.441-2.996 1.604-.83 5.969-2.145 9.698-2.922 3.729-.778 9.201-2.541 12.159-3.918 2.958-1.377 6.539-2.508 7.959-2.513 1.419-.006 4.794-1.141 7.5-2.524 2.705-1.383 7.323-3.151 10.262-3.93 2.939-.778 6.089-2.081 7-2.896.911-.814 4.207-2.217 7.323-3.117 3.117-.9 6.192-2.269 6.834-3.043.642-.774 3.546-2.098 6.453-2.943 2.907-.845 5.829-2.192 6.493-2.992.664-.801 3.398-2.183 6.074-3.072 2.677-.889 5.905-2.423 7.173-3.409 1.269-.986 4.107-2.365 6.307-3.065 2.2-.7 4.675-1.851 5.5-2.558.825-.707 3.975-2.469 7-3.915 3.025-1.446 8.2-4.157 11.5-6.024 3.3-1.866 7.512-4.124 9.361-5.018 3.544-1.712 11.837-7.033 16.274-10.442 1.45-1.113 3.7-2.482 5-3.042 1.301-.56 4.84-2.836 7.865-5.059 3.025-2.223 6.625-4.806 8-5.74 4.09-2.777 20.084-14.775 26-19.504 3.025-2.418 6.85-5.247 8.5-6.285 1.65-1.039 6.6-5.034 11-8.879 4.4-3.846 8.869-7.68 9.931-8.522 3.313-2.627 32.799-32.067 41.939-41.875 7.235-7.764 19.469-22.358 34.414-41.054 1.494-1.869 4.066-5.079 5.716-7.134 1.65-2.055 3.777-5.026 4.727-6.602.95-1.576 3.305-4.891 5.233-7.366 1.928-2.475 4.431-6.075 5.563-8 2.29-3.896 5.875-9.206 8.776-13 1.051-1.375 2.715-4.075 3.697-6 .982-1.925 2.847-4.772 4.145-6.327 1.297-1.554 2.359-3.387 2.359-4.072 0-.684 1.337-3.012 2.972-5.173 1.635-2.16 2.985-4.428 3-5.038.015-.611 1.098-2.687 2.406-4.614 1.307-1.927 2.947-5.253 3.644-7.39.697-2.137 2.289-5.113 3.538-6.612 1.249-1.499 2.59-4.199 2.98-6 .39-1.801 1.562-4.482 2.605-5.958 1.044-1.476 2.553-4.543 3.355-6.815.801-2.272 2.367-5.288 3.479-6.701 1.111-1.413 2.021-3.097 2.021-3.742s1.574-4.297 3.497-8.115c1.923-3.819 3.498-7.69 3.5-8.603.002-.913 1.353-4.513 3.002-8 1.65-3.487 3.014-7.24 3.032-8.34.017-1.1 1.368-4.689 3-7.975 1.633-3.286 2.969-6.81 2.969-7.832 0-1.022 1.298-4.858 2.885-8.525 1.586-3.668 3.205-8.912 3.597-11.655.391-2.743 1.387-6.292 2.212-7.889.826-1.596 2.342-7.085 3.371-12.198 1.028-5.113 2.739-11.913 3.801-15.111 1.062-3.198 2.24-8.74 2.618-12.315.378-3.575 1.581-10.073 2.672-14.44 1.091-4.367 2.599-13.592 3.351-20.5.753-6.908 2.166-17.285 3.141-23.06 1.474-8.735 1.776-16.804 1.797-48 .021-32.765-.256-39.773-2.195-55.5-1.221-9.9-2.686-23.37-3.255-29.933-.57-6.564-1.731-14.617-2.58-17.897-.85-3.279-2.177-11.052-2.949-17.272-.771-6.221-2.084-12.942-2.917-14.936-.833-1.994-2.244-7.513-3.134-12.266-.891-4.752-2.442-10.728-3.448-13.28-1.006-2.552-2.346-7.49-2.977-10.973-.632-3.484-1.976-7.955-2.986-9.935-1.01-1.981-2.153-5.38-2.539-7.555-.387-2.174-1.999-6.953-3.584-10.621-1.584-3.667-2.895-7.492-2.912-8.5-.018-1.007-1.368-4.521-3-7.807-1.633-3.286-2.969-6.71-2.969-7.609s-1.292-4.06-2.871-7.025c-1.578-2.965-3.177-6.798-3.552-8.518-.375-1.719-1.783-4.619-3.129-6.444-1.347-1.825-2.453-4.018-2.459-4.873-.006-.856-2.238-5.831-4.961-11.056-2.722-5.225-5.898-11.525-7.056-14-1.159-2.475-2.921-5.4-3.916-6.5-.995-1.1-2.338-3.652-2.984-5.67-.646-2.019-1.874-4.251-2.729-4.96-.855-.709-2.559-3.558-3.787-6.33-1.228-2.772-2.98-5.658-3.894-6.412-.914-.755-1.662-1.958-1.662-2.674 0-.715-1.064-2.573-2.363-4.127-1.3-1.555-3.333-4.627-4.518-6.827-1.185-2.2-3.731-6.025-5.659-8.5-1.928-2.475-4.283-5.794-5.233-7.376-.95-1.582-2.676-4.057-3.836-5.5-1.16-1.443-2.848-4.064-3.75-5.824-.903-1.76-2.255-3.56-3.005-4-.751-.44-2.113-2.262-3.026-4.05-.914-1.788-2.091-3.25-2.615-3.25-.525 0-1.82-1.687-2.877-3.75-1.058-2.062-3.092-4.841-4.521-6.174-1.428-1.334-2.597-2.909-2.597-3.5-.001-.592-2.496-3.776-5.546-7.076-3.049-3.3-6.144-6.9-6.878-8-.733-1.1-4.901-5.825-9.262-10.5-4.36-4.675-8.627-9.522-9.48-10.771-3.618-5.296-27.163-27.957-40.407-38.89-27.133-22.4-31.882-26.107-50.392-39.339-10.752-7.687-18.383-12.624-35.035-22.671-9.93-5.99-47.67-25.048-56.427-28.494-2.79-1.098-6.648-2.835-8.573-3.861-4.712-2.512-15.472-6.875-21-8.516-2.475-.734-6.714-2.488-9.419-3.897-2.706-1.408-6.202-2.561-7.769-2.561-1.568 0-5.38-1.35-8.472-3-3.092-1.65-6.676-3-7.966-3-1.289 0-6.288-1.297-11.109-2.881-4.821-1.585-11.375-3.195-14.565-3.579-3.189-.383-7.765-1.566-10.167-2.628-2.402-1.063-8.118-2.408-12.7-2.988-4.583-.581-11.561-2.137-15.505-3.46-3.945-1.322-10.92-2.697-15.5-3.054-4.581-.358-12.603-1.514-17.828-2.57-5.225-1.056-16.25-2.34-24.5-2.854-17.078-1.063-83.723-1.039-102.5.038m-59 232.621c-2.475.227-9.675 1.269-16 2.314-6.325 1.046-15.55 2.201-20.5 2.566-6.208.458-10.664 1.409-14.363 3.066-2.949 1.321-8.057 2.836-11.351 3.366-3.293.53-7.553 1.888-9.467 3.017-1.914 1.13-5.581 2.52-8.15 3.091-2.568.57-6.244 2.094-8.169 3.386-1.925 1.292-4.551 2.662-5.836 3.044-2.252.669-9.957 4.996-15.195 8.532-1.392.94-4.317 2.676-6.5 3.858-2.183 1.183-5.994 3.715-8.469 5.627-2.475 1.912-5.905 4.491-7.622 5.732-15.113 10.922-29.593 24.761-40.378 38.591-3.575 4.584-7.4 9.304-8.5 10.49-3.015 3.248-6.171 7.717-8.597 12.175-1.197 2.2-3.24 5.272-4.54 6.827-1.299 1.554-2.363 3.312-2.363 3.905 0 .594-1.057 2.472-2.348 4.174-1.292 1.702-2.929 4.894-3.639 7.094s-2.182 5.27-3.271 6.822c-1.09 1.553-2.588 4.837-3.329 7.3-.741 2.462-2.205 5.692-3.254 7.177-1.049 1.486-2.398 5.01-2.998 7.833-.599 2.823-1.973 6.648-3.054 8.5-1.081 1.852-2.429 6.743-2.997 10.868-.568 4.125-2.052 10.2-3.299 13.5-2.2 5.825-2.266 7.051-2.288 42-.022 34.822.052 36.24 2.28 43.329 1.266 4.031 2.715 10.946 3.219 15.366.564 4.939 1.72 9.398 3.002 11.569 1.146 1.944 2.515 5.829 3.042 8.635.526 2.805 1.823 6.28 2.88 7.722 1.058 1.442 2.65 5.122 3.539 8.179.889 3.057 2.531 6.722 3.65 8.145 1.119 1.423 2.498 4.263 3.063 6.311.566 2.049 2.103 5.001 3.415 6.561 1.313 1.56 2.4 3.364 2.415 4.01.015.645 1.365 2.941 3 5.101 1.635 2.161 2.972 4.337 2.972 4.837 0 .956 13.393 19.054 16.619 22.458 1.035 1.091 3.883 4.553 6.329 7.692 11.103 14.246 44.146 40.757 60.052 48.18 1.925.899 4.625 2.42 6 3.381 1.375.96 4.3 2.32 6.5 3.02 2.2.701 5.84 2.338 8.088 3.639 2.248 1.301 4.759 2.365 5.58 2.365.821 0 3.707 1.139 6.413 2.531 2.705 1.392 7.844 3.374 11.419 4.405 3.575 1.031 8.121 2.57 10.102 3.421 1.982.85 9.182 2.238 16 3.083 6.819.846 13.888 1.969 15.71 2.497 1.821.527 9.37 1.443 16.775 2.034 13.873 1.108 35.2.108 42.446-1.99 1.907-.552 9.044-1.695 15.861-2.54 7.966-.988 14.475-2.413 18.22-3.989 3.204-1.348 6.694-2.452 7.754-2.452 1.061 0 4.411-1.306 7.445-2.902 3.035-1.596 7.018-3.215 8.852-3.598 1.834-.383 5.135-1.716 7.335-2.963s5.8-2.84 8-3.541c2.2-.7 5.125-2.04 6.5-2.977 1.375-.936 3.85-2.382 5.5-3.213 5.214-2.624 16.793-9.936 22.5-14.208 3.025-2.264 6.625-4.842 8-5.729 8.635-5.569 32.472-29.602 38.902-39.222.879-1.314 4.523-6.269 8.098-11.009 7.452-9.882 11.86-17.19 18.482-30.638 8.428-17.117 9.462-19.451 10.539-23.765.585-2.346 1.941-5.75 3.012-7.566 1.071-1.816 2.578-6.911 3.348-11.323.77-4.413 2.176-9.523 3.124-11.356 1.292-2.499 2.114-8.818 3.28-25.237 1.415-19.91 1.412-24.013-.032-45.084-1.227-17.888-2.039-24.32-3.557-28.175-1.082-2.746-2.478-8.294-3.103-12.327-.625-4.033-1.98-8.985-3.011-11.005-1.03-2.02-2.378-5.696-2.994-8.168-1.183-4.748-1.653-5.814-10.57-23.994-9.002-18.353-12.894-24.727-23.518-38.51-4.125-5.352-8.4-10.952-9.5-12.445-1.1-1.494-2.675-3.405-3.5-4.247-.825-.842-4.164-4.532-7.42-8.201-10.954-12.341-37.205-32.594-52.441-40.459-1.452-.749-4.214-2.392-6.139-3.65-1.925-1.258-4.625-2.61-6-3.004-1.375-.394-3.85-1.715-5.5-2.935-1.65-1.221-5.25-2.777-8-3.46-2.75-.682-6.437-2.127-8.193-3.211-1.756-1.084-5.868-2.402-9.137-2.928-3.27-.527-8.358-2.038-11.307-3.359-3.715-1.664-8.128-2.602-14.363-3.053-4.95-.358-13.95-1.507-20-2.554-11.543-1.998-26.886-3.038-34.5-2.339m2.5 79.434c-2.2.467-9.736 1.321-16.746 1.898-8.685.715-14.419 1.728-18 3.181-2.89 1.172-8.854 3.14-13.254 4.372-32.957 9.232-63.961 35.312-83.953 70.621-8.783 15.51-11.031 21.114-15.188 37.849-4.256 17.134-5.488 28.403-4.757 43.5.589 12.175 5.185 39.285 8.052 47.5 7.279 20.857 23.728 46.998 39.53 62.822 4.387 4.393 19.449 16.037 25.816 19.958 1.925 1.185 8.225 4.44 14 7.233 5.775 2.793 12.263 5.962 14.417 7.041 2.154 1.08 10.479 3.625 18.5 5.656l14.583 3.694 23-.019c21.533-.018 23.606-.183 32.5-2.588 5.225-1.413 11.26-2.879 13.41-3.258 2.151-.38 6.376-2.006 9.391-3.614 3.014-1.609 6.003-2.925 6.642-2.925 1.039 0 9.661-4.337 21.459-10.794 13.387-7.327 36.094-29.427 48.927-47.619 2.294-3.252 4.171-6.445 4.171-7.095 0-.65.873-1.972 1.94-2.938 1.068-.966 2.619-3.748 3.449-6.182.829-2.434 2.431-5.599 3.559-7.034 1.129-1.434 2.056-3.56 2.062-4.723.005-1.163 1.147-4.558 2.537-7.544 4.117-8.845 8.56-33.346 8.716-48.071.166-15.583-3.992-41.675-8.393-52.664-1.578-3.943-2.87-7.625-2.87-8.183 0-1.692-13.308-27.308-16.965-32.653-4.835-7.069-15.916-20.015-22.738-26.566-7.41-7.115-29.636-22.274-39.065-26.643-3.998-1.853-10.973-4.29-15.5-5.416-4.528-1.127-8.708-2.442-9.289-2.924-1.954-1.619-12.813-3.951-18.403-3.952-3.047-.001-9.365-.676-14.04-1.499-9.297-1.638-11.516-1.691-17.5-.421m302.217 133.51c-1.53.83-6.705 2.012-11.5 2.627-9.832 1.26-10.832 1.755-11.722 5.806-.348 1.586-1.463 3.939-2.478 5.229-2.654 3.374-3.052 11.02-3.611 69.43-.412 42.982-.261 51.73.943 54.611 1.222 2.925 2.576 3.906 9.191 6.66l7.759 3.23 23.287.01c19.746.009 23.635-.233 25.573-1.591 1.257-.88 4.098-1.604 6.314-1.607 6.974-.009 11.038-1.67 13-5.314 1.766-3.279 1.757-3.355-.857-7.496L867.975 617l-11.238-.123c-6.18-.067-17.711-.18-25.624-.25-12.883-.114-14.504-.321-15.5-1.987-.612-1.024-2.318-3.724-3.791-6-4.839-7.482-6.239-26.586-2.192-29.921.814-.671 3.014-2.681 4.891-4.469l3.412-3.25 13.784-.044c18.477-.058 21.771-.77 25.908-5.601 4.058-4.74 4.127-6.88.365-11.28-3.537-4.137-7.418-4.886-25.99-5.017-14.953-.105-16.891-.834-18.774-7.067-2.166-7.173-.051-26.991 2.881-26.991.501 0 2.256-1.285 3.899-2.855l2.987-2.855 17.311-.52c17.876-.536 17.292-.414 25.962-5.43 2.713-1.569 3.7-3.319 3.719-6.588.012-2.201-.932-3.343-4.735-5.731l-4.75-2.983-21.5.021c-17.243.017-22.051.32-24.283 1.53m131.283.388c-1.925 1.041-5.866 2.2-8.759 2.574-3.572.463-6.422 1.606-8.887 3.565-1.996 1.586-3.922 2.884-4.28 2.884-.807 0-12.956 12.205-17.058 17.137-1.941 2.334-3.386 5.559-4.032 9-.554 2.95-2.001 6.713-3.216 8.363-1.946 2.643-2.297 4.784-2.955 18-1.099 22.059-1.099 22.026-.122 34.503.785 10.018 1.25 12.016 3.605 15.482 1.508 2.219 2.704 5.357 2.704 7.094 0 2.147 1.01 4.174 3.25 6.527a227.52 227.52 0 016.384 7.056c1.724 2.004 4.199 4.209 5.5 4.899 1.301.691 2.926 2.045 3.61 3.009.685.964 3.141 2.073 5.458 2.464 2.317.392 7.157 1.874 10.756 3.295 5.694 2.249 7.919 2.567 17.165 2.458 9.146-.107 11.302-.467 15.5-2.585 2.682-1.353 6.901-2.798 9.376-3.211 5.011-.836 7.784-2.626 15.637-10.089 5.85-5.56 6.586-8.138 3.838-13.452-1.856-3.589-5.321-3.907-9.576-.877-1.695 1.206-5.241 2.313-8.483 2.648-3.705.382-6.803 1.447-9.244 3.177-3.4 2.41-4.445 2.6-14.171 2.573-9.802-.027-10.899-.237-16.5-3.169-9.014-4.717-15.301-11.151-16.107-16.483-.359-2.375-1.515-5.269-2.568-6.431-2.76-3.044-4.12-13.738-3.471-27.284.704-14.684 1.448-19.011 3.779-21.989 1.027-1.312 1.867-3.688 1.867-5.282 0-1.593.643-4.436 1.429-6.317 1.64-3.926 11.978-14.516 14.17-14.516.807 0 3.688-1.125 6.401-2.5 3.337-1.691 6.577-2.5 10.013-2.5 3.498 0 6.54.778 9.775 2.5 2.727 1.452 6.377 2.507 8.704 2.517 2.629.011 5.728 1.037 9.008 2.983 2.75 1.631 5.541 2.974 6.202 2.983.661.009 2.565-1.964 4.231-4.386l3.03-4.403-2.992-6.597c-1.645-3.628-3.577-6.597-4.294-6.597-.716 0-2.539-1.291-4.05-2.868-2.057-2.146-4.018-3.018-7.797-3.466-2.777-.329-6.601-1.513-8.497-2.632-4.772-2.816-19.17-2.849-24.333-.057m92.531 8.431c-2.931 1.62-4.201 3.097-4.851 5.643-.485 1.897-1.108 16.274-1.385 31.949-.386 21.802-.836 29.143-1.917 31.234-1.447 2.8-2.427 19.016-2.729 45.155-.169 14.605.222 15.421 6.799 14.187 6.083-1.141 8.14-4.017 8.981-12.556.4-4.052 1.336-8.977 2.081-10.944 2.374-6.267 3.49-13.901 3.49-23.875 0-11.926 2.137-23.61 5.369-29.365 1.973-3.513 2.971-4.336 5.254-4.336 3.356 0 5.34 3.172 5.362 8.576.01 2.456.757 4.273 2.386 5.803 1.536 1.443 2.597 3.868 3.01 6.885.351 2.561 1.776 6.298 3.167 8.305 1.39 2.006 2.896 5.976 3.346 8.821.473 2.998 1.717 6.131 2.956 7.45 1.176 1.253 2.519 4.312 2.984 6.8.667 3.571 1.849 5.452 5.617 8.941 2.625 2.431 5.446 4.806 6.27 5.28 2.115 1.216 5.528-.579 11.21-5.893 3.941-3.687 4.978-5.375 5.52-8.988.398-2.653 1.431-4.985 2.561-5.776 2.106-1.475 3.988-5.705 3.988-8.964 0-1.172 1.142-3.322 2.538-4.779 1.417-1.48 2.8-4.373 3.132-6.555.327-2.148 1.488-4.891 2.579-6.095 1.092-1.204 2.573-4.718 3.291-7.808 1.417-6.095 7.482-14.236 10.735-14.409 3.39-.18 4.005 4.61 4.74 36.906.71 31.241.738 31.545 3.341 37 1.443 3.025 2.629 5.987 2.634 6.583.01 1.067 7.302 7.417 8.518 7.417.344 0 2.196-1.198 4.116-2.663l3.491-2.662-.307-58.758c-.303-57.738-.344-58.798-2.373-61.087-1.136-1.282-2.777-3.48-3.646-4.885-2.109-3.411-8.69-5.608-12.487-4.169-1.541.584-4.034 1.33-5.539 1.659-1.506.328-3.53 1.805-4.498 3.283-.967 1.477-2.773 3.699-4.012 4.938-1.239 1.239-2.253 2.879-2.253 3.644 0 .764-.859 2.167-1.909 3.117-1.049.95-2.471 3.158-3.159 4.905-.688 1.748-2.257 4.303-3.486 5.678s-2.538 3.939-2.909 5.698c-.37 1.759-1.993 4.859-3.605 6.888-1.613 2.029-2.932 4.511-2.932 5.517 0 1.005-1.35 3.365-3 5.244-1.65 1.879-3 4.553-3 5.94 0 1.388-1.463 4.348-3.25 6.577s-3.945 5.031-4.794 6.227c-2.161 3.045-5.576 1.754-7.493-2.834-.827-1.978-2.334-4.179-3.349-4.89-1.016-.711-2.134-3.089-2.485-5.283-.351-2.195-1.733-5.172-3.071-6.616-1.339-1.444-2.744-4.053-3.123-5.797-.38-1.744-1.983-4.649-3.563-6.456-1.579-1.806-2.872-4.378-2.872-5.715 0-1.337-1.319-3.933-2.932-5.77-1.612-1.836-3.243-4.664-3.624-6.284-.381-1.62-1.762-3.977-3.069-5.236-1.306-1.26-2.375-2.768-2.375-3.351 0-1.618-8.137-9.292-11.297-10.654-3.942-1.698-7.575-1.339-12.172 1.203M738.635 649.073c-1.449 1.139-2.65 2.602-2.669 3.25-.019.647-2.156 3.951-4.75 7.342-2.594 3.391-6.689 8.741-9.101 11.89-13.978 18.249-31.443 35.757-45.801 45.912-12.937 9.151-24.324 16.568-29.126 18.971-4.432 2.218-5.26 3.05-5 5.024.352 2.668 50.636 54.149 134.812 138.02 66.711 66.47 66.477 66.252 78.5 72.963 5.717 3.191 21.278 7.651 31.5 9.028 6.034.812 29.026-5.087 35.501-9.109 13.552-8.42 23.897-18.838 28.166-28.364a569.554 569.554 0 014.577-9.935c1.72-3.608 2.197-6.894 2.561-17.617.7-20.648-1.904-30.571-12.026-45.825C940.743 843.033 744.86 647 742.312 647c-.573 0-2.228.933-3.677 2.073" fill="undefined" fill-rule="evenodd"/></svg>